<svg xmlns="http://www.w3.org/2000/svg" width="16" height="16" viewBox="0 0 16 16">
  <g id="key" transform="translate(-684 -188)">
    <path id="Vector" d="M11.805,8.574A5.026,5.026,0,0,1,6.763,9.815L3.638,12.933a1.284,1.284,0,0,1-.989.325l-1.446-.2a1.253,1.253,0,0,1-1-1l-.2-1.446a1.337,1.337,0,0,1,.325-.989L3.452,6.511a5.024,5.024,0,1,1,8.354,2.063Z" transform="translate(685.363 189.37)" fill="none" stroke="#2a84ff" strokeLinecap="round" strokeLinejoin="round" strokeWidth="1.5"/>
    <path id="Vector-2" data-name="Vector" d="M0,0,1.57,1.57" transform="translate(688.582 199.631)" fill="none" stroke="#2a84ff" strokeLinecap="round" strokeLinejoin="round" strokeWidth="1.5"/>
    <path id="Vector-3" data-name="Vector" d="M2.048,1.024A1.024,1.024,0,1,1,1.024,0,1.024,1.024,0,0,1,2.048,1.024Z" transform="translate(692.637 193.315)" fill="none" stroke="#2a84ff" strokeLinecap="round" strokeLinejoin="round" strokeWidth="1.5"/>
    <path id="Vector-4" data-name="Vector" d="M0,0H16V16H0Z" transform="translate(700 204) rotate(180)" fill="none" opacity="0"/>
  </g>
</svg>
